<?xml version="1.0" standalone="no"?>
<svg xmlns:xlink="http://www.w3.org/1999/xlink" id="wave" style="transform:rotate(0deg); transition: 0.3s" viewBox="0 0 1440 140" version="1.1" xmlns="http://www.w3.org/2000/svg"><defs><linearGradient id="sw-gradient-0" x1="0" x2="0" y1="1" y2="0"><stop stop-color="rgba(245, 130, 32, 1)" offset="0%"/><stop stop-color="rgba(245, 130, 32, 1)" offset="100%"/></linearGradient></defs><path style="transform:translate(0, 0px); opacity:1" fill="url(#sw-gradient-0)" d="M0,112L60,95.7C120,79,240,47,360,42C480,37,600,61,720,58.3C840,56,960,28,1080,16.3C1200,5,1320,9,1440,14C1560,19,1680,23,1800,30.3C1920,37,2040,47,2160,46.7C2280,47,2400,37,2520,42C2640,47,2760,65,2880,70C3000,75,3120,65,3240,67.7C3360,70,3480,84,3600,74.7C3720,65,3840,33,3960,18.7C4080,5,4200,9,4320,28C4440,47,4560,79,4680,91C4800,103,4920,93,5040,81.7C5160,70,5280,56,5400,49C5520,42,5640,42,5760,56C5880,70,6000,98,6120,105C6240,112,6360,98,6480,86.3C6600,75,6720,65,6840,60.7C6960,56,7080,56,7200,65.3C7320,75,7440,93,7560,100.3C7680,107,7800,103,7920,100.3C8040,98,8160,98,8280,102.7C8400,107,8520,117,8580,121.3L8640,126L8640,140L8580,140C8520,140,8400,140,8280,140C8160,140,8040,140,7920,140C7800,140,7680,140,7560,140C7440,140,7320,140,7200,140C7080,140,6960,140,6840,140C6720,140,6600,140,6480,140C6360,140,6240,140,6120,140C6000,140,5880,140,5760,140C5640,140,5520,140,5400,140C5280,140,5160,140,5040,140C4920,140,4800,140,4680,140C4560,140,4440,140,4320,140C4200,140,4080,140,3960,140C3840,140,3720,140,3600,140C3480,140,3360,140,3240,140C3120,140,3000,140,2880,140C2760,140,2640,140,2520,140C2400,140,2280,140,2160,140C2040,140,1920,140,1800,140C1680,140,1560,140,1440,140C1320,140,1200,140,1080,140C960,140,840,140,720,140C600,140,480,140,360,140C240,140,120,140,60,140L0,140Z"/></svg>